<svg xmlns="http://www.w3.org/2000/svg" viewBox="381 1316 24 24" fill="none"><path d="M393 1329C393.552 1329 394 1328.55 394 1328C394 1327.45 393.552 1327 393 1327C392.448 1327 392 1327.45 392 1328C392 1328.55 392.448 1329 393 1329Z" stroke="#4D4F57" stroke-width="1.9" stroke-linecap="round" stroke-linejoin="round" />
<path d="M400 1329C400.552 1329 401 1328.55 401 1328C401 1327.45 400.552 1327 400 1327C399.448 1327 399 1327.45 399 1328C399 1328.55 399.448 1329 400 1329Z" stroke="#4D4F57" stroke-width="1.9" stroke-linecap="round" stroke-linejoin="round" />
<path d="M386 1329C386.552 1329 387 1328.55 387 1328C387 1327.45 386.552 1327 386 1327C385.448 1327 385 1327.45 385 1328C385 1328.55 385.448 1329 386 1329Z" stroke="#4D4F57" stroke-width="1.9" stroke-linecap="round" stroke-linejoin="round" />
</svg>